<?xml version="1.0" encoding="utf-8"?>
<!DOCTYPE svg PUBLIC "-//W3C//DTD SVG 1.1//EN" "http://www.w3.org/Graphics/SVG/1.1/DTD/svg11.dtd">
<svg version="1.1" id="Capa_1" xmlns="http://www.w3.org/2000/svg" xmlns:xlink="http://www.w3.org/1999/xlink" x="0px" y="0px"
width="406px" height="481px" viewBox="0 0 406 481" enable-background="new 0 0 480 854" xml:space="preserve">
<defs><linearGradient id="gradient2" gradientUnits="userSpaceOnUse" x1="-19.815323" spreadMethod="reflect" x2="565.5442" y1="593.20886" y2="-269.7277">
<stop offset="0.0%" stop-color="#B375D4" stop-opacity="1.0"/><stop offset="50.0%" stop-color="#5684EC" stop-opacity="1.0"/><stop offset="100.0%" stop-color="#000000" stop-opacity="1.0"/></linearGradient></defs><path layer="1" fill="url(#gradient2)" stroke="#000000" stroke-width="2" stroke-opacity="0.0" stroke-miterlimit="10" d="M131.72083,2.0319977C131.72083,2.0319977,407.02972,97.139206,407.02972,97.139206C407.02972,97.139206,274.72723,480.11758,274.72723,480.11758C274.72723,480.11758,-0.58158875,385.01047,-0.58158875,385.01047C-0.58158875,385.01047,131.72083,2.0319977,131.72083,2.0319977"/>
<path layer="1" fill="#FFFFFF" fill-opacity="1.0" stroke="#000000" stroke-width="2" stroke-opacity="0.0" stroke-miterlimit="10" d="M1838.2366,-547.80786C1844.377,-555.55334,1850.5172,-563.2989,1862.4274,-576.26526C1874.3375,-589.2316,1892.0181,-607.4187,1909.6987,-625.6058"/>
<path layer="1" fill="#FFFFFF" fill-opacity="1.0" stroke="#000000" stroke-width="2" stroke-opacity="0.0" stroke-miterlimit="10" d="M1944.1497,-660.30786C2001.54,-714.837,2029.1252,-735.21063,2076.2297,-761.9512C2100.074,-775.4872,2123.9912,-787.3397,2147.9082,-799.19226"/>
<path layer="1" fill="#FFFFFF" fill-opacity="1.0" stroke="#000000" stroke-width="2" stroke-opacity="0.0" stroke-miterlimit="10" d="M2175.2515,-799.1921C2175.2515,-799.1921,2175.2515,-799.1921,2175.2515,-799.1921C2175.2515,-799.1921,2175.2515,-799.1921,2175.2515,-799.1921C2175.2515,-799.1921,2175.2515,-799.1921,2175.2515,-799.1921C2175.2515,-799.1921,2175.2515,-799.1921,2175.2515,-799.1921"/>
<path layer="1" fill="#FFFFFF" fill-opacity="1.0" stroke="#000000" stroke-width="2" stroke-opacity="0.0" stroke-miterlimit="10" d="M2175.2515,-799.1921C2175.2515,-799.1921,2096.4248,-799.1921,2096.4248,-799.1921C2096.4248,-799.1921,2096.4248,-872.7415,2096.4248,-872.7415C2096.4248,-872.7415,2175.2515,-872.74146,2175.2515,-872.74146C2175.2515,-872.74146,2175.2515,-799.1921,2175.2515,-799.1921"/>
</svg>